<svg width="125" height="26" viewBox="0 0 125 26" fill="none" xmlns="http://www.w3.org/2000/svg">
<path d="M43.1952 26H32.8101L27.0469 9.70615L21.2838 26H10.8986L0 0H11.0128L16.7759 17.3463L23.2809 0H30.8129L37.3179 17.3463L43.024 0H54.0938L43.1952 26Z" fill="white"/>
<path d="M90.8152 26H81.3431L65.2519 10.9535V26H55.4374V0H65.5372L80.9437 14.3058V0H90.8152V26Z" fill="white"/>
<path d="M102.518 26H92.7035V0H111.762C115.87 0 119.104 0.831584 121.462 2.49475C123.821 4.13194 125 6.18491 125 8.65367C125 11.0965 123.821 13.1494 121.462 14.8126C119.104 16.4498 115.87 17.2684 111.762 17.2684H102.518V26ZM110.449 11.4213C111.781 11.4213 112.865 11.1744 113.702 10.6807C114.577 10.1869 115.014 9.51124 115.014 8.65367C115.014 7.77012 114.577 7.08146 113.702 6.58771C112.865 6.09395 111.781 5.84708 110.449 5.84708H102.518V11.4213H110.449Z" fill="white"/>
</svg>
