<svg width="450" height="54" viewBox="0 0 450 54" fill="none" xmlns="http://www.w3.org/2000/svg">
<path d="M450 0H0V54H450V0Z" fill="#005594"/>
<path d="M37.0599 19H14.9399V21.65H37.0599V19Z" fill="white"/>
<path d="M37.0599 25.99H14.9399V28.64H37.0599V25.99Z" fill="white"/>
<path d="M37.0599 32.98H14.9399V35.63H37.0599V32.98Z" fill="white"/>
<path d="M427.24 30.8693C428.479 29.0842 429.143 26.9624 429.14 24.7893C429.142 22.3307 428.304 19.9452 426.764 18.0285C425.224 16.1118 423.076 14.779 420.674 14.2511C418.273 13.7233 415.764 14.0321 413.562 15.1265C411.36 16.2208 409.599 18.0348 408.57 20.2676C407.541 22.5005 407.306 25.0181 407.904 27.4028C408.502 29.7875 409.898 31.896 411.859 33.3788C413.82 34.8615 416.229 35.6293 418.687 35.5548C421.144 35.4803 423.502 34.5681 425.37 32.9693L432.37 39.9693L434.37 37.9693L427.24 30.8693ZM418.38 32.7593C416.798 32.7593 415.251 32.2901 413.936 31.4111C412.62 30.532 411.595 29.2826 410.989 27.8208C410.384 26.359 410.225 24.7504 410.534 23.1986C410.842 21.6467 411.604 20.2213 412.723 19.1024C413.842 17.9836 415.268 17.2217 416.819 16.913C418.371 16.6043 419.98 16.7628 421.442 17.3683C422.903 17.9738 424.153 18.9991 425.032 20.3147C425.911 21.6303 426.38 23.177 426.38 24.7593C426.38 26.881 425.537 28.9159 424.037 30.4161C422.537 31.9164 420.502 32.7593 418.38 32.7593Z" fill="white"/>
<path d="M99.7838 40H89.4976L83.7893 23.7061L78.081 40H67.7949L57 14H67.9079L73.6162 31.3463L80.0592 14H87.5195L93.9625 31.3463L99.6142 14H110.579L99.7838 40Z" fill="white"/>
<path d="M146.95 40H137.568L121.63 24.9535V40H111.909V14H121.913L137.173 28.3058V14H146.95V40Z" fill="white"/>
<path d="M158.542 40H148.821V14H167.697C171.767 14 174.969 14.8316 177.305 16.4948C179.641 18.1319 180.81 20.1849 180.81 22.6537C180.81 25.0965 179.641 27.1494 177.305 28.8126C174.969 30.4498 171.767 31.2684 167.697 31.2684H158.542V40ZM166.398 25.4213C167.716 25.4213 168.79 25.1744 169.619 24.6807C170.486 24.1869 170.919 23.5112 170.919 22.6537C170.919 21.7701 170.486 21.0815 169.619 20.5877C168.79 20.094 167.716 19.8471 166.398 19.8471H158.542V25.4213H166.398Z" fill="white"/>
</svg>
