<svg width="1440" height="47" viewBox="0 0 1440 47" fill="none" xmlns="http://www.w3.org/2000/svg">
<g clip-path="url(#clip0)">
<rect width="1440" height="47" fill="white"/>
<rect x="82" y="16" width="17" height="2" fill="#005594"/>
<rect x="82" y="22" width="17" height="2" fill="#005594"/>
<rect x="82" y="28" width="17" height="2" fill="#005594"/>
<path d="M168.467 37.5118H158.498L152.965 21.5239L147.432 37.5118H137.463L127 12H137.572L143.105 29.0206L149.35 12H156.58L162.825 29.0206L168.303 12H178.93L168.467 37.5118Z" fill="#005594"/>
<path d="M214.183 37.5118H205.089L189.642 22.7479V37.5118H180.22V12H189.916L204.706 26.0372V12H214.183V37.5118Z" fill="#005594"/>
<path d="M225.417 37.5118H215.995V12H234.291C238.235 12 241.34 12.816 243.604 14.4479C245.868 16.0544 247 18.0688 247 20.4912C247 22.8881 245.868 24.9025 243.604 26.5345C241.34 28.1409 238.235 28.9441 234.291 28.9441H225.417V37.5118ZM233.031 23.2068C234.31 23.2068 235.35 22.9646 236.154 22.4801C236.994 21.9956 237.414 21.3327 237.414 20.4912C237.414 19.6242 236.994 18.9485 236.154 18.464C235.35 17.9795 234.31 17.7373 233.031 17.7373H225.417V23.2068H233.031Z" fill="#005594"/>
<path d="M1143.99 28.12C1142.84 28.12 1141.94 27.7667 1141.28 27.06L1141.93 26.16C1142.5 26.7733 1143.21 27.08 1144.04 27.08C1144.49 27.08 1144.82 26.99 1145.04 26.81C1145.27 26.63 1145.38 26.4167 1145.38 26.17C1145.38 25.9167 1145.25 25.7167 1144.98 25.57C1144.71 25.4167 1144.39 25.2967 1144.01 25.21C1143.63 25.1233 1143.25 25.02 1142.86 24.9C1142.48 24.78 1142.16 24.5767 1141.89 24.29C1141.62 24.0033 1141.49 23.6333 1141.49 23.18C1141.49 22.62 1141.71 22.1567 1142.16 21.79C1142.61 21.4167 1143.2 21.23 1143.92 21.23C1144.95 21.23 1145.78 21.54 1146.42 22.16L1145.75 23.03C1145.24 22.5233 1144.6 22.27 1143.82 22.27C1143.47 22.27 1143.2 22.3467 1142.99 22.5C1142.79 22.6467 1142.69 22.8467 1142.69 23.1C1142.69 23.2667 1142.76 23.4067 1142.9 23.52C1143.05 23.6333 1143.23 23.7267 1143.46 23.8C1143.69 23.8667 1143.94 23.9333 1144.21 24C1144.49 24.0667 1144.77 24.15 1145.04 24.25C1145.32 24.3433 1145.57 24.46 1145.8 24.6C1146.03 24.74 1146.21 24.9333 1146.35 25.18C1146.5 25.4267 1146.57 25.72 1146.57 26.06C1146.57 26.66 1146.35 27.1533 1145.92 27.54C1145.49 27.9267 1144.84 28.12 1143.99 28.12ZM1154.96 28H1153.79V25.09H1150.32V28H1149.15V21.33H1150.32V24.06H1153.79V21.33H1154.96V28ZM1163.87 28H1162.54L1162.05 26.72H1158.99L1158.5 28H1157.17L1159.79 21.33H1161.25L1163.87 28ZM1161.72 25.69L1160.52 22.51L1159.32 25.69H1161.72ZM1171.26 28H1169.91L1168.43 25.51H1167.27V28H1166.1V21.33H1169.03C1169.69 21.33 1170.21 21.5233 1170.61 21.91C1171.01 22.2967 1171.21 22.8 1171.21 23.42C1171.21 23.98 1171.06 24.43 1170.75 24.77C1170.45 25.1033 1170.07 25.3067 1169.63 25.38L1171.26 28ZM1168.87 24.48C1169.21 24.48 1169.48 24.3833 1169.69 24.19C1169.91 23.9967 1170.01 23.74 1170.01 23.42C1170.01 23.1 1169.91 22.8433 1169.69 22.65C1169.48 22.4567 1169.21 22.36 1168.87 22.36H1167.27V24.48H1168.87ZM1178.45 28H1173.88V21.33H1178.45V22.36H1175.05V24.09H1178.38V25.12H1175.05V26.97H1178.45V28Z" fill="black" fill-opacity="0.5"/>
<path d="M1201.04 33V25.0231H1199V22.151H1201.04V19.6979C1201.04 17.7702 1202.25 16 1205.03 16C1206.15 16 1206.99 16.1114 1206.99 16.1114L1206.92 18.7935C1206.92 18.7935 1206.07 18.7849 1205.15 18.7849C1204.14 18.7849 1203.98 19.262 1203.98 20.0539V22.151H1207L1206.87 25.0231H1203.98V33H1201.04Z" fill="#005594"/>
<path d="M1239.99 18.7793C1239.33 19.08 1238.62 19.2831 1237.87 19.3749C1238.64 18.9018 1239.22 18.1572 1239.49 17.28C1238.77 17.7212 1237.98 18.0318 1237.15 18.1982C1236.59 17.5895 1235.86 17.186 1235.06 17.0504C1234.25 16.9148 1233.43 17.0547 1232.71 17.4484C1232 17.8421 1231.43 18.4675 1231.09 19.2276C1230.76 19.9877 1230.68 20.8399 1230.86 21.6519C1229.39 21.5764 1227.96 21.1851 1226.65 20.5036C1225.34 19.8221 1224.18 18.8655 1223.25 17.696C1222.94 18.2568 1222.75 18.9069 1222.75 19.5992C1222.75 20.2225 1222.9 20.8362 1223.19 21.386C1223.48 21.9357 1223.89 22.4045 1224.4 22.7506C1223.81 22.7315 1223.24 22.5691 1222.72 22.2769V22.3256C1222.72 23.1998 1223.02 24.0471 1223.56 24.7237C1224.1 25.4003 1224.85 25.8646 1225.68 26.0377C1225.14 26.1886 1224.57 26.2109 1224.02 26.1027C1224.25 26.8549 1224.71 27.5127 1225.33 27.9839C1225.95 28.4552 1226.7 28.7163 1227.47 28.7308C1226.16 29.7835 1224.54 30.3545 1222.88 30.352C1222.59 30.3521 1222.29 30.3344 1222 30.2992C1223.69 31.4118 1225.65 32.0023 1227.66 32C1234.45 32 1238.16 26.2319 1238.16 21.2294C1238.16 21.0668 1238.16 20.9027 1238.15 20.7402C1238.87 20.2046 1239.49 19.5414 1239.99 18.7817L1239.99 18.7793Z" fill="#005594"/>
<path d="M1258.4 31.5V22.0542H1255.18V31.5H1258.4ZM1256.79 20.7638C1257.91 20.7638 1258.61 20.0385 1258.61 19.132C1258.59 18.2052 1257.91 17.5 1256.81 17.5C1255.71 17.5 1254.99 18.2052 1254.99 19.132C1254.99 20.0385 1255.69 20.7638 1256.77 20.7638H1256.79H1256.79ZM1260.18 31.5H1263.39V26.225C1263.39 25.9427 1263.41 25.6607 1263.5 25.4589C1263.73 24.8948 1264.26 24.3106 1265.15 24.3106C1266.31 24.3106 1266.78 25.1769 1266.78 26.4466V31.4999H1269.99V26.0838C1269.99 23.1824 1268.41 21.8325 1266.29 21.8325C1264.56 21.8325 1263.79 22.7792 1263.37 23.424H1263.39V22.054H1260.18C1260.22 22.9404 1260.18 31.4998 1260.18 31.4998L1260.18 31.5Z" fill="#005594"/>
<path d="M1303.99 21.373V28.5C1303.99 29.163 1303.68 29.7989 1303.12 30.2678C1302.57 30.7366 1301.81 31 1301.02 31H1287.96C1287.17 31 1286.42 30.7366 1285.86 30.2678C1285.3 29.7989 1284.99 29.163 1284.99 28.5V21.373L1294.19 25.931C1294.28 25.9764 1294.39 26.0003 1294.49 26.0003C1294.6 26.0003 1294.7 25.9764 1294.79 25.931L1303.99 21.373ZM1301.02 18C1301.75 17.9999 1302.46 18.2266 1303 18.6367C1303.55 19.0469 1303.89 19.6116 1303.97 20.223L1294.49 24.92L1285.01 20.223C1285.09 19.6116 1285.44 19.0469 1285.98 18.6367C1286.52 18.2266 1287.23 17.9999 1287.96 18H1301.02Z" fill="#005594"/>
<rect x="1333" y="13" width="1" height="24" fill="#C4C4C4"/>
<path fill-rule="evenodd" clip-rule="evenodd" d="M1359.03 23.1048C1359.03 27.2806 1355.58 30.7097 1351.26 30.7097C1346.95 30.7097 1343.5 27.2806 1343.5 23.1048C1343.5 18.9291 1346.95 15.5 1351.26 15.5C1355.58 15.5 1359.03 18.9291 1359.03 23.1048ZM1357.58 29.7615C1355.93 31.2802 1353.71 32.2097 1351.26 32.2097C1346.15 32.2097 1342 28.1333 1342 23.1048C1342 18.0764 1346.15 14 1351.26 14C1356.38 14 1360.53 18.0764 1360.53 23.1048C1360.53 25.1963 1359.81 27.1231 1358.6 28.6603L1364.76 34.7098C1365.05 35.0002 1365.06 35.475 1364.77 35.7705C1364.48 36.0659 1364 36.07 1363.71 35.7796L1357.58 29.7615Z" fill="#005594"/>
</g>
<defs>
<clipPath id="clip0">
<rect width="1440" height="47" fill="white"/>
</clipPath>
</defs>
</svg>
