<svg width="1440" height="85" viewBox="0 0 1440 85" fill="none" xmlns="http://www.w3.org/2000/svg">
<rect width="1440" height="85" fill="white"/>
<rect width="1440" height="85" fill="#005594"/>
<path d="M122.467 40.5118H112.498L106.965 24.5239L101.432 40.5118H91.4627L81 15H91.5723L97.1049 32.0206L103.35 15H110.58L116.825 32.0206L122.303 15H132.93L122.467 40.5118Z" fill="white"/>
<path d="M168.183 40.5118H159.089L143.642 25.7479V40.5118H134.22V15H143.916L158.706 29.0372V15H168.183V40.5118Z" fill="white"/>
<path d="M179.417 40.5118H169.995V15H188.291C192.235 15 195.34 15.816 197.604 17.4479C199.868 19.0544 201 21.0688 201 23.4912C201 25.8881 199.868 27.9025 197.604 29.5345C195.34 31.1409 192.235 31.9441 188.291 31.9441H179.417V40.5118ZM187.031 26.2068C188.31 26.2068 189.35 25.9646 190.154 25.4801C190.994 24.9956 191.414 24.3327 191.414 23.4912C191.414 22.6242 190.994 21.9485 190.154 21.464C189.35 20.9795 188.31 20.7373 187.031 20.7373H179.417V26.2068H187.031Z" fill="white"/>
<rect x="81" y="59" width="17" height="2" fill="white"/>
<rect x="81" y="65" width="17" height="2" fill="white"/>
<rect x="81" y="71" width="17" height="2" fill="white"/>
<path d="M142.046 71H140.044V64.462L137.412 71H136.544L133.912 64.462V71H131.924V61.662H134.71L136.978 67.304L139.246 61.662H142.046V71ZM153.309 71H151.041L150.467 69.418H146.463L145.875 71H143.607L147.219 61.662H149.711L153.309 71ZM149.921 67.668L148.465 63.65L147.009 67.668H149.921ZM162.431 71H160.149L158.315 67.682H156.859V71H154.871V61.662H159.239C160.2 61.662 160.961 61.942 161.521 62.502C162.09 63.062 162.375 63.7853 162.375 64.672C162.375 65.4373 162.174 66.058 161.773 66.534C161.381 67.01 160.9 67.3133 160.331 67.444L162.431 71ZM158.945 65.932C159.356 65.932 159.692 65.82 159.953 65.596C160.214 65.3627 160.345 65.0547 160.345 64.672C160.345 64.2893 160.214 63.986 159.953 63.762C159.692 63.5287 159.356 63.412 158.945 63.412H156.859V65.932H158.945ZM172.561 71H170.111L167.283 67.262L166.555 68.13V71H164.567V61.662H166.555V65.834L169.859 61.662H172.309L168.599 66.044L172.561 71ZM180.775 71H174.167V61.662H180.775V63.412H176.155V65.386H180.677V67.136H176.155V69.25H180.775V71ZM187.187 71H185.185V63.412H182.455V61.662H189.903V63.412H187.187V71ZM195.1 71.168C193.439 71.168 192.123 70.6733 191.152 69.684L192.23 68.172C193.033 69.012 194.022 69.432 195.198 69.432C195.712 69.432 196.108 69.334 196.388 69.138C196.678 68.9327 196.822 68.6853 196.822 68.396C196.822 68.144 196.687 67.934 196.416 67.766C196.155 67.598 195.824 67.4767 195.422 67.402C195.03 67.3273 194.601 67.22 194.134 67.08C193.668 66.94 193.234 66.7813 192.832 66.604C192.44 66.4267 192.109 66.1467 191.838 65.764C191.577 65.3813 191.446 64.9147 191.446 64.364C191.446 63.5613 191.768 62.8893 192.412 62.348C193.056 61.7973 193.915 61.522 194.988 61.522C196.472 61.522 197.686 61.956 198.628 62.824L197.522 64.28C196.785 63.5987 195.88 63.258 194.806 63.258C194.386 63.258 194.06 63.342 193.826 63.51C193.593 63.678 193.476 63.9067 193.476 64.196C193.476 64.42 193.607 64.6113 193.868 64.77C194.139 64.9193 194.47 65.0313 194.862 65.106C195.264 65.1807 195.693 65.2927 196.15 65.442C196.617 65.582 197.046 65.7453 197.438 65.932C197.84 66.1093 198.171 66.394 198.432 66.786C198.703 67.1687 198.838 67.6307 198.838 68.172C198.838 69.068 198.516 69.7913 197.872 70.342C197.238 70.8927 196.314 71.168 195.1 71.168Z" fill="white"/>
<path d="M230.992 71H225.924V61.662H230.838C231.687 61.662 232.345 61.8953 232.812 62.362C233.288 62.8193 233.526 63.3793 233.526 64.042C233.526 64.6113 233.372 65.0873 233.064 65.47C232.756 65.8527 232.373 66.0907 231.916 66.184C232.42 66.2587 232.845 66.5153 233.19 66.954C233.535 67.3927 233.708 67.9013 233.708 68.48C233.708 69.208 233.47 69.81 232.994 70.286C232.518 70.762 231.851 71 230.992 71ZM230.404 65.4C230.74 65.4 231.006 65.3067 231.202 65.12C231.398 64.9333 231.496 64.6907 231.496 64.392C231.496 64.0933 231.393 63.8507 231.188 63.664C230.992 63.468 230.731 63.37 230.404 63.37H227.912V65.4H230.404ZM230.474 69.278C230.847 69.278 231.141 69.1847 231.356 68.998C231.571 68.802 231.678 68.536 231.678 68.2C231.678 67.892 231.571 67.6353 231.356 67.43C231.141 67.2153 230.847 67.108 230.474 67.108H227.912V69.278H230.474ZM243.257 70.118C242.548 70.818 241.503 71.168 240.121 71.168C238.74 71.168 237.69 70.818 236.971 70.118C236.262 69.4087 235.907 68.4613 235.907 67.276V61.662H237.923V67.206C237.923 67.878 238.115 68.4147 238.497 68.816C238.88 69.208 239.421 69.404 240.121 69.404C240.821 69.404 241.358 69.208 241.731 68.816C242.114 68.4147 242.305 67.878 242.305 67.206V61.662H244.335V67.262C244.335 68.466 243.976 69.418 243.257 70.118ZM250.193 71.168C248.531 71.168 247.215 70.6733 246.245 69.684L247.323 68.172C248.125 69.012 249.115 69.432 250.291 69.432C250.804 69.432 251.201 69.334 251.481 69.138C251.77 68.9327 251.915 68.6853 251.915 68.396C251.915 68.144 251.779 67.934 251.509 67.766C251.247 67.598 250.916 67.4767 250.515 67.402C250.123 67.3273 249.693 67.22 249.227 67.08C248.76 66.94 248.326 66.7813 247.925 66.604C247.533 66.4267 247.201 66.1467 246.931 65.764C246.669 65.3813 246.539 64.9147 246.539 64.364C246.539 63.5613 246.861 62.8893 247.505 62.348C248.149 61.7973 249.007 61.522 250.081 61.522C251.565 61.522 252.778 61.956 253.721 62.824L252.615 64.28C251.877 63.5987 250.972 63.258 249.899 63.258C249.479 63.258 249.152 63.342 248.919 63.51C248.685 63.678 248.569 63.9067 248.569 64.196C248.569 64.42 248.699 64.6113 248.961 64.77C249.231 64.9193 249.563 65.0313 249.955 65.106C250.356 65.1807 250.785 65.2927 251.243 65.442C251.709 65.582 252.139 65.7453 252.531 65.932C252.932 66.1093 253.263 66.394 253.525 66.786C253.795 67.1687 253.931 67.6307 253.931 68.172C253.931 69.068 253.609 69.7913 252.965 70.342C252.33 70.8927 251.406 71.168 250.193 71.168ZM257.957 71H255.969V61.662H257.957V71ZM268.869 71H266.951L262.499 64.91V71H260.511V61.662H262.555L266.881 67.528V61.662H268.869V71ZM278.018 71H271.41V61.662H278.018V63.412H273.398V65.386H277.92V67.136H273.398V69.25H278.018V71ZM283.59 71.168C281.929 71.168 280.613 70.6733 279.642 69.684L280.72 68.172C281.523 69.012 282.512 69.432 283.688 69.432C284.202 69.432 284.598 69.334 284.878 69.138C285.168 68.9327 285.312 68.6853 285.312 68.396C285.312 68.144 285.177 67.934 284.906 67.766C284.645 67.598 284.314 67.4767 283.912 67.402C283.52 67.3273 283.091 67.22 282.624 67.08C282.158 66.94 281.724 66.7813 281.322 66.604C280.93 66.4267 280.599 66.1467 280.328 65.764C280.067 65.3813 279.936 64.9147 279.936 64.364C279.936 63.5613 280.258 62.8893 280.902 62.348C281.546 61.7973 282.405 61.522 283.478 61.522C284.962 61.522 286.176 61.956 287.118 62.824L286.012 64.28C285.275 63.5987 284.37 63.258 283.296 63.258C282.876 63.258 282.55 63.342 282.316 63.51C282.083 63.678 281.966 63.9067 281.966 64.196C281.966 64.42 282.097 64.6113 282.358 64.77C282.629 64.9193 282.96 65.0313 283.352 65.106C283.754 65.1807 284.183 65.2927 284.64 65.442C285.107 65.582 285.536 65.7453 285.928 65.932C286.33 66.1093 286.661 66.394 286.922 66.786C287.193 67.1687 287.328 67.6307 287.328 68.172C287.328 69.068 287.006 69.7913 286.362 70.342C285.728 70.8927 284.804 71.168 283.59 71.168ZM292.685 71.168C291.024 71.168 289.708 70.6733 288.737 69.684L289.815 68.172C290.618 69.012 291.607 69.432 292.783 69.432C293.296 69.432 293.693 69.334 293.973 69.138C294.262 68.9327 294.407 68.6853 294.407 68.396C294.407 68.144 294.272 67.934 294.001 67.766C293.74 67.598 293.408 67.4767 293.007 67.402C292.615 67.3273 292.186 67.22 291.719 67.08C291.252 66.94 290.818 66.7813 290.417 66.604C290.025 66.4267 289.694 66.1467 289.423 65.764C289.162 65.3813 289.031 64.9147 289.031 64.364C289.031 63.5613 289.353 62.8893 289.997 62.348C290.641 61.7973 291.5 61.522 292.573 61.522C294.057 61.522 295.27 61.956 296.213 62.824L295.107 64.28C294.37 63.5987 293.464 63.258 292.391 63.258C291.971 63.258 291.644 63.342 291.411 63.51C291.178 63.678 291.061 63.9067 291.061 64.196C291.061 64.42 291.192 64.6113 291.453 64.77C291.724 64.9193 292.055 65.0313 292.447 65.106C292.848 65.1807 293.278 65.2927 293.735 65.442C294.202 65.582 294.631 65.7453 295.023 65.932C295.424 66.1093 295.756 66.394 296.017 66.786C296.288 67.1687 296.423 67.6307 296.423 68.172C296.423 69.068 296.101 69.7913 295.457 70.342C294.822 70.8927 293.898 71.168 292.685 71.168Z" fill="white"/>
<path d="M324.912 71H322.924V61.662H324.912V71ZM335.824 71H333.906L329.454 64.91V71H327.466V61.662H329.51L333.836 67.528V61.662H335.824V71ZM346.723 71H344.805L340.353 64.91V71H338.365V61.662H340.409L344.735 67.528V61.662H346.723V71ZM353.688 71.168C352.279 71.168 351.112 70.7153 350.188 69.81C349.274 68.8953 348.816 67.738 348.816 66.338C348.816 64.938 349.274 63.7853 350.188 62.88C351.112 61.9653 352.279 61.508 353.688 61.508C355.107 61.508 356.274 61.9607 357.188 62.866C358.112 63.7713 358.574 64.9287 358.574 66.338C358.574 67.7473 358.112 68.9047 357.188 69.81C356.274 70.7153 355.107 71.168 353.688 71.168ZM351.63 68.536C352.153 69.1147 352.839 69.404 353.688 69.404C354.538 69.404 355.224 69.1147 355.746 68.536C356.269 67.9573 356.53 67.2247 356.53 66.338C356.53 65.4513 356.269 64.7187 355.746 64.14C355.224 63.5613 354.538 63.272 353.688 63.272C352.839 63.272 352.153 63.5613 351.63 64.14C351.117 64.7187 350.86 65.4513 350.86 66.338C350.86 67.2247 351.117 67.9573 351.63 68.536ZM365.506 71H363.014L359.402 61.662H361.67L364.26 68.844L366.836 61.662H369.104L365.506 71ZM378.718 71H376.45L375.876 69.418H371.872L371.284 71H369.016L372.628 61.662H375.12L378.718 71ZM375.33 67.668L373.874 63.65L372.418 67.668H375.33ZM383.536 71H381.534V63.412H378.804V61.662H386.252V63.412H383.536V71ZM390.214 71H388.226V61.662H390.214V71ZM397.192 71.168C395.783 71.168 394.616 70.7153 393.692 69.81C392.777 68.8953 392.32 67.738 392.32 66.338C392.32 64.938 392.777 63.7853 393.692 62.88C394.616 61.9653 395.783 61.508 397.192 61.508C398.611 61.508 399.777 61.9607 400.692 62.866C401.616 63.7713 402.078 64.9287 402.078 66.338C402.078 67.7473 401.616 68.9047 400.692 69.81C399.777 70.7153 398.611 71.168 397.192 71.168ZM395.134 68.536C395.657 69.1147 396.343 69.404 397.192 69.404C398.041 69.404 398.727 69.1147 399.25 68.536C399.773 67.9573 400.034 67.2247 400.034 66.338C400.034 65.4513 399.773 64.7187 399.25 64.14C398.727 63.5613 398.041 63.272 397.192 63.272C396.343 63.272 395.657 63.5613 395.134 64.14C394.621 64.7187 394.364 65.4513 394.364 66.338C394.364 67.2247 394.621 67.9573 395.134 68.536ZM412.531 71H410.613L406.161 64.91V71H404.173V61.662H406.217L410.543 67.528V61.662H412.531V71Z" fill="white"/>
<rect x="322" y="75" width="92" height="3" fill="#FCB700"/>
<path d="M444.082 71H442.08V63.412H439.35V61.662H446.798V63.412H444.082V71ZM455.38 71H448.772V61.662H455.38V63.412H450.76V65.386H455.282V67.136H450.76V69.25H455.38V71ZM462.157 71.168C460.738 71.168 459.553 70.72 458.601 69.824C457.658 68.9187 457.187 67.7567 457.187 66.338C457.187 64.9193 457.658 63.762 458.601 62.866C459.553 61.9607 460.738 61.508 462.157 61.508C463.902 61.508 465.204 62.2687 466.063 63.79L464.355 64.63C464.149 64.238 463.846 63.916 463.445 63.664C463.053 63.4027 462.623 63.272 462.157 63.272C461.307 63.272 460.607 63.5613 460.057 64.14C459.506 64.7187 459.231 65.4513 459.231 66.338C459.231 67.2247 459.506 67.9573 460.057 68.536C460.607 69.1147 461.307 69.404 462.157 69.404C462.623 69.404 463.053 69.278 463.445 69.026C463.846 68.774 464.149 68.4473 464.355 68.046L466.063 68.872C465.176 70.4027 463.874 71.168 462.157 71.168ZM476.346 71H474.344V67.08H469.934V71H467.946V61.662H469.934V65.33H474.344V61.662H476.346V71Z" fill="white"/>
<path d="M513.178 71H511.064L509.426 64.588L507.802 71H505.688L503.014 61.662H505.24L506.878 68.41L508.656 61.662H510.21L511.974 68.41L513.598 61.662H515.838L513.178 71ZM525.568 71H523.3L522.726 69.418H518.722L518.134 71H515.866L519.478 61.662H521.97L525.568 71ZM522.18 67.668L520.724 63.65L519.268 67.668H522.18ZM530.386 71H528.384V63.412H525.654V61.662H533.102V63.412H530.386V71ZM539.257 71.168C537.838 71.168 536.653 70.72 535.701 69.824C534.758 68.9187 534.287 67.7567 534.287 66.338C534.287 64.9193 534.758 63.762 535.701 62.866C536.653 61.9607 537.838 61.508 539.257 61.508C541.002 61.508 542.304 62.2687 543.163 63.79L541.455 64.63C541.25 64.238 540.946 63.916 540.545 63.664C540.153 63.4027 539.724 63.272 539.257 63.272C538.408 63.272 537.708 63.5613 537.157 64.14C536.606 64.7187 536.331 65.4513 536.331 66.338C536.331 67.2247 536.606 67.9573 537.157 68.536C537.708 69.1147 538.408 69.404 539.257 69.404C539.724 69.404 540.153 69.278 540.545 69.026C540.946 68.774 541.25 68.4473 541.455 68.046L543.163 68.872C542.276 70.4027 540.974 71.168 539.257 71.168ZM553.446 71H551.444V67.08H547.034V71H545.046V61.662H547.034V65.33H551.444V61.662H553.446V71ZM561.923 71H555.986V61.662H557.975V69.25H561.923V71ZM566.003 71H564.015V61.662H566.003V71ZM571.874 71.168C570.213 71.168 568.897 70.6733 567.926 69.684L569.004 68.172C569.807 69.012 570.796 69.432 571.972 69.432C572.486 69.432 572.882 69.334 573.162 69.138C573.452 68.9327 573.596 68.6853 573.596 68.396C573.596 68.144 573.461 67.934 573.19 67.766C572.929 67.598 572.598 67.4767 572.196 67.402C571.804 67.3273 571.375 67.22 570.908 67.08C570.442 66.94 570.008 66.7813 569.606 66.604C569.214 66.4267 568.883 66.1467 568.612 65.764C568.351 65.3813 568.22 64.9147 568.22 64.364C568.22 63.5613 568.542 62.8893 569.186 62.348C569.83 61.7973 570.689 61.522 571.762 61.522C573.246 61.522 574.46 61.956 575.402 62.824L574.296 64.28C573.559 63.5987 572.654 63.258 571.58 63.258C571.16 63.258 570.834 63.342 570.6 63.51C570.367 63.678 570.25 63.9067 570.25 64.196C570.25 64.42 570.381 64.6113 570.642 64.77C570.913 64.9193 571.244 65.0313 571.636 65.106C572.038 65.1807 572.467 65.2927 572.924 65.442C573.391 65.582 573.82 65.7453 574.212 65.932C574.614 66.1093 574.945 66.394 575.206 66.786C575.477 67.1687 575.612 67.6307 575.612 68.172C575.612 69.068 575.29 69.7913 574.646 70.342C574.012 70.8927 573.088 71.168 571.874 71.168ZM581.631 71H579.629V63.412H576.899V61.662H584.347V63.412H581.631V71Z" fill="white"/>
<rect width="247.75" height="30.25" transform="translate(1117 27)" fill="white"/>
<path fill-rule="evenodd" clip-rule="evenodd" d="M1349.5 40.5C1349.5 43.8137 1346.81 46.5 1343.5 46.5C1340.19 46.5 1337.5 43.8137 1337.5 40.5C1337.5 37.1863 1340.19 34.5 1343.5 34.5C1346.81 34.5 1349.5 37.1863 1349.5 40.5ZM1348.52 46.0763C1347.19 47.2722 1345.43 48 1343.5 48C1339.36 48 1336 44.6421 1336 40.5C1336 36.3579 1339.36 33 1343.5 33C1347.64 33 1351 36.3579 1351 40.5C1351 42.173 1350.45 43.7181 1349.53 44.9656C1349.53 44.967 1349.53 44.9683 1349.53 44.9697L1354.53 49.9697C1354.82 50.2626 1354.82 50.7374 1354.53 51.0303C1354.24 51.3232 1353.76 51.3232 1353.47 51.0303L1348.52 46.0763Z" fill="#7A7A7A"/>
</svg>
