<svg width="15" height="18" viewBox="0 0 15 18" fill="none" xmlns="http://www.w3.org/2000/svg">
<path d="M9.61157 0.439062C8.81257 -0.397938 7.51957 0.052063 7.18057 1.02906C6.90057 1.83606 6.53657 2.80106 6.18257 3.51206C5.12257 5.63806 4.50457 6.84806 2.79857 8.36206C2.54852 8.57257 2.26401 8.73834 1.95757 8.85206C0.827565 9.29806 -0.232435 10.4671 0.0445653 11.8561L0.397565 13.6211C0.488582 14.0764 0.704634 14.4975 1.0215 14.8369C1.33837 15.1764 1.74353 15.4209 2.19157 15.5431L7.79157 17.0701C8.39314 17.2339 9.02221 17.271 9.63887 17.1789C10.2555 17.0868 10.8463 16.8676 11.3738 16.5352C11.9013 16.2027 12.3539 15.7643 12.7029 15.2476C13.052 14.731 13.2899 14.1475 13.4016 13.5341L14.0866 9.77206C14.1652 9.33967 14.1479 8.89528 14.0359 8.47032C13.9239 8.04535 13.7198 7.65019 13.4382 7.31278C13.1566 6.97537 12.8043 6.70395 12.4063 6.51772C12.0082 6.33149 11.574 6.23499 11.1346 6.23506H10.2516L10.2616 6.18306C10.3416 5.77506 10.4376 5.21306 10.5016 4.60006C10.5666 3.99006 10.6016 3.31606 10.5506 2.68806C10.5006 2.07106 10.3666 1.43806 10.0466 0.958061C9.93657 0.794062 9.77457 0.610062 9.61157 0.439062Z" fill="#CCCCCC"/>
</svg>
